<svg width="1200" height="304" viewBox="0 0 1200 304" fill="none" xmlns="http://www.w3.org/2000/svg">
<g opacity="0.04">
<path d="M1132.65 324.911C1128.1 324.911 1124.76 322.939 1122.64 318.995C1120.51 315.051 1119 310.652 1118.09 305.798C1117.48 300.944 1117.18 297.303 1117.18 294.876C1117.18 290.628 1117.48 285.623 1118.09 279.858C1118.69 273.791 1119.3 267.571 1119.91 261.2C1120.82 254.526 1121.73 248.458 1122.64 242.997L1130.37 195.669C1131.28 189.602 1132.35 183.534 1133.56 177.466C1134.77 171.399 1135.38 165.938 1135.38 161.084C1135.38 157.443 1134.62 154.713 1133.1 152.892C1131.59 151.072 1129.62 150.162 1127.19 150.162C1123.24 150.162 1117.02 153.954 1108.53 161.539C1100.34 168.82 1091.54 179.438 1082.14 193.394C1073.03 207.046 1064.69 223.429 1057.11 242.542C1049.52 261.655 1044.52 283.044 1042.09 306.708L1026.16 237.536C1035.26 211.142 1045.58 188.995 1057.11 171.095C1068.64 153.196 1080.47 138.937 1092.6 128.318C1104.74 117.396 1116.42 109.508 1127.64 104.654C1138.87 99.8001 1148.88 97.373 1157.68 97.373C1167.99 97.373 1176.18 99.345 1182.25 103.289C1188.62 106.93 1193.17 111.935 1195.9 118.307C1198.64 124.374 1200 130.897 1200 137.875C1200 145.763 1199.39 153.196 1198.18 160.173C1197.27 167.151 1196.21 174.584 1194.99 182.472L1173.15 324.911H1132.65ZM991.121 326.731C987.177 326.731 983.991 325.973 981.564 324.456C979.44 323.242 978.227 319.753 977.924 313.989C977.62 308.225 978.227 298.972 979.744 286.229L1001.13 96.918H1041.63C1048.61 96.918 1053.77 100.255 1057.11 106.93C1060.75 113.604 1062.57 121.189 1062.57 129.683C1062.57 133.627 1061.05 139.847 1058.02 148.341C1054.98 156.533 1051.65 165.331 1048.01 174.736C1044.36 183.837 1041.33 191.877 1038.9 198.855L1027.07 236.171L1049.37 233.441L1042.09 306.708C1041.79 310.348 1039.36 313.534 1034.81 316.264C1030.26 318.995 1024.8 321.119 1018.43 322.635C1012.36 324.152 1006.74 325.214 1001.59 325.821C996.43 326.428 992.941 326.731 991.121 326.731Z" fill="white"/>
<path d="M900.866 327.64C895.405 327.64 891.158 323.848 888.124 316.263C885.09 308.679 883.573 300.487 883.573 291.689C883.573 283.195 883.877 275.61 884.483 268.936C885.09 261.958 886 253.311 887.214 242.996L903.597 96.917H945.008C952.29 96.917 957.144 100.254 959.571 106.929C962.301 113.603 963.667 121.188 963.667 129.682C963.667 133.93 963.363 138.481 962.756 143.335C962.15 147.885 961.24 155.015 960.026 164.723L951.38 238.901C949.863 254.07 948.346 266.964 946.829 277.582C945.312 288.2 943.947 297.454 942.733 305.342C941.823 313.23 940.913 320.663 940.003 327.64H900.866ZM940.913 78.2589C931.205 78.2589 922.71 74.9216 915.429 68.2472C908.147 61.2694 904.507 52.3195 904.507 41.3977C904.507 28.6556 908.602 18.6439 916.794 11.3627C925.289 4.08151 935.149 0.440918 946.374 0.440918C956.385 0.440918 964.88 3.47475 971.858 9.54242C978.836 15.6101 982.325 24.5599 982.325 36.3919C982.325 48.5272 978.229 58.5389 970.038 66.4269C961.846 74.3149 952.138 78.2589 940.913 78.2589Z" fill="white"/>
<path d="M745.835 327.641C720.351 327.641 697.597 322.635 677.574 312.623C657.551 302.308 641.775 286.987 630.246 266.661C618.717 246.334 612.953 221.305 612.953 191.573C612.953 164.269 617.504 139.239 626.605 116.486C635.707 93.4285 648.449 73.5569 664.832 56.8708C681.518 39.8813 701.086 26.8358 723.537 17.7343C746.29 8.32941 771.016 3.62695 797.714 3.62695C823.805 3.62695 843.677 6.50911 857.329 12.2734C870.981 18.0377 877.807 28.6561 877.807 44.1287C877.807 52.32 876.139 59.4496 872.801 65.5173C869.464 71.5849 865.824 74.6188 861.88 74.6188C859.149 74.6188 855.205 73.2535 850.048 70.5231C845.193 67.4893 840.643 64.7588 836.395 62.3317C829.114 57.781 821.074 53.2302 812.276 48.6795C803.782 43.8253 793.315 41.3982 780.876 41.3982C762.673 41.3982 746.442 47.3142 732.183 59.1462C718.227 70.6748 707.154 87.0575 698.962 108.294C691.074 129.531 687.13 154.56 687.13 183.382C687.13 207.349 690.164 227.221 696.232 242.997C702.3 258.773 710.643 270.453 721.261 278.038C731.88 285.622 743.863 289.414 757.212 289.414C768.741 289.414 779.056 286.987 788.157 282.133C797.562 277.279 805.754 271.667 812.731 265.295C820.013 258.924 826.535 253.463 832.3 248.913C838.064 244.059 843.525 241.632 848.682 241.632C852.626 241.632 855.812 242.845 858.239 245.272C860.666 247.699 861.88 251.492 861.88 256.649C861.88 269.391 856.57 281.223 845.952 292.145C835.637 303.067 821.681 311.713 804.085 318.084C786.489 324.455 767.072 327.641 745.835 327.641Z" fill="white"/>
<path d="M519.7 324.911C515.149 324.911 511.812 322.939 509.688 318.995C507.565 315.051 506.048 310.652 505.138 305.798C504.531 300.944 504.227 297.303 504.227 294.876C504.227 290.628 504.531 285.623 505.138 279.858C505.744 273.791 506.351 267.571 506.958 261.2C507.868 254.526 508.778 248.458 509.688 242.997L517.425 195.669C518.335 189.602 519.397 183.534 520.61 177.466C521.824 171.399 522.43 165.938 522.43 161.084C522.43 157.443 521.672 154.713 520.155 152.892C518.638 151.072 516.666 150.162 514.239 150.162C510.295 150.162 504.076 153.954 495.581 161.539C487.39 168.82 478.591 179.438 469.187 193.394C460.085 207.046 451.742 223.429 444.157 242.542C436.573 261.655 431.567 283.044 429.14 306.708L413.212 237.536C422.314 211.142 432.629 188.995 444.157 171.095C455.686 153.196 467.518 138.937 479.653 128.318C491.789 117.396 503.469 109.508 514.694 104.654C525.919 99.8001 535.931 97.373 544.729 97.373C555.044 97.373 563.236 99.345 569.303 103.289C575.674 106.93 580.225 111.935 582.956 118.307C585.686 124.374 587.051 130.897 587.051 137.875C587.051 145.763 586.444 153.196 585.231 160.173C584.321 167.151 583.259 174.584 582.045 182.472L560.202 324.911H519.7ZM378.171 326.731C374.227 326.731 371.042 325.973 368.615 324.456C366.491 323.242 365.278 319.753 364.974 313.989C364.671 308.225 365.278 298.972 366.795 286.229L388.183 96.918H428.685C435.663 96.918 440.82 100.255 444.157 106.93C447.798 113.604 449.618 121.189 449.618 129.683C449.618 133.627 448.101 139.847 445.068 148.341C442.034 156.533 438.697 165.331 435.056 174.736C431.415 183.837 428.381 191.877 425.954 198.855L414.122 236.171L436.421 233.441L429.14 306.708C428.837 310.348 426.409 313.534 421.859 316.264C417.308 318.995 411.847 321.119 405.476 322.635C399.408 324.152 393.796 325.214 388.638 325.821C383.481 326.428 379.992 326.731 378.171 326.731Z" fill="white"/>
<path d="M287.923 327.64C282.462 327.64 278.214 323.848 275.181 316.263C272.147 308.679 270.63 300.487 270.63 291.689C270.63 283.195 270.933 275.61 271.54 268.936C272.147 261.958 273.057 253.311 274.27 242.996L290.653 96.917H332.065C339.346 96.917 344.2 100.254 346.628 106.929C349.358 113.603 350.723 121.188 350.723 129.682C350.723 133.93 350.42 138.481 349.813 143.335C349.206 147.885 348.296 155.015 347.083 164.723L338.436 238.901C336.919 254.07 335.402 266.964 333.885 277.582C332.368 288.2 331.003 297.454 329.79 305.342C328.88 313.23 327.969 320.663 327.059 327.64H287.923ZM327.969 78.2589C318.261 78.2589 309.766 74.9216 302.485 68.2472C295.204 61.2694 291.563 52.3195 291.563 41.3977C291.563 28.6556 295.659 18.6439 303.85 11.3627C312.345 4.08151 322.205 0.440918 333.43 0.440918C343.442 0.440918 351.937 3.47475 358.915 9.54242C365.892 15.6101 369.381 24.5599 369.381 36.3919C369.381 48.5272 365.286 58.5389 357.094 66.4269C348.903 74.3149 339.195 78.2589 327.969 78.2589Z" fill="white"/>
<path d="M132.882 327.641C107.398 327.641 84.6441 322.635 64.6208 312.623C44.5974 302.308 28.8215 286.987 17.2929 266.661C5.76429 246.334 0 221.305 0 191.573C0 164.269 4.55076 139.239 13.6523 116.486C22.7538 93.4285 35.4959 73.5569 51.8786 56.8708C68.5647 39.8813 88.133 26.8358 110.583 17.7343C133.337 8.32941 158.063 3.62695 184.761 3.62695C210.852 3.62695 230.723 6.50911 244.376 12.2734C258.028 18.0377 264.854 28.6561 264.854 44.1287C264.854 52.32 263.185 59.4496 259.848 65.5173C256.511 71.5849 252.87 74.6188 248.926 74.6188C246.196 74.6188 242.252 73.2535 237.094 70.5231C232.24 67.4893 227.69 64.7588 223.442 62.3317C216.161 57.781 208.121 53.2302 199.323 48.6795C190.828 43.8253 180.362 41.3982 167.923 41.3982C149.72 41.3982 133.489 47.3142 119.23 59.1462C105.274 70.6748 94.2007 87.0575 86.0093 108.294C78.1213 129.531 74.1773 154.56 74.1773 183.382C74.1773 207.349 77.2112 227.221 83.2789 242.997C89.3465 258.773 97.6896 270.453 108.308 278.038C118.926 285.622 130.91 289.414 144.259 289.414C155.788 289.414 166.103 286.987 175.204 282.133C184.609 277.279 192.8 271.667 199.778 265.295C207.059 258.924 213.582 253.463 219.346 248.913C225.111 244.059 230.572 241.632 235.729 241.632C239.673 241.632 242.859 242.845 245.286 245.272C247.713 247.699 248.926 251.492 248.926 256.649C248.926 269.391 243.617 281.223 232.999 292.145C222.684 303.067 208.728 311.713 191.132 318.084C173.536 324.455 154.119 327.641 132.882 327.641Z" fill="white"/>
</g>
</svg>
