<svg width="100" height="60" viewBox="0 0 100 60" fill="none" xmlns="http://www.w3.org/2000/svg">
    <path d="M80.8049 49.9514C80.5416 49.9514 80.3486 49.8373 80.2257 49.6091C80.1028 49.3809 80.0151 49.1264 79.9624 48.8456C79.9273 48.5647 79.9097 48.3541 79.9097 48.2137C79.9097 47.9679 79.9273 47.6783 79.9624 47.3448C79.9975 46.9938 80.0326 46.6339 80.0677 46.2653C80.1204 45.8792 80.173 45.5281 80.2257 45.2122L80.6733 42.4739C80.7259 42.1229 80.7874 41.7718 80.8576 41.4208C80.9278 41.0697 80.9629 40.7538 80.9629 40.4729C80.9629 40.2623 80.919 40.1043 80.8313 39.999C80.7435 39.8937 80.6294 39.841 80.489 39.841C80.2608 39.841 79.901 40.0604 79.4095 40.4992C78.9356 40.9205 78.4265 41.5348 77.8824 42.3423C77.3558 43.1322 76.8731 44.08 76.4343 45.1858C75.9955 46.2916 75.7059 47.5291 75.5654 48.8982L74.6439 44.8962C75.1705 43.3691 75.7673 42.0878 76.4343 41.0521C77.1013 40.0165 77.7859 39.1916 78.488 38.5772C79.1901 37.9453 79.8659 37.4889 80.5153 37.2081C81.1648 36.9272 81.744 36.7868 82.253 36.7868C82.8498 36.7868 83.3237 36.9009 83.6748 37.1291C84.0434 37.3397 84.3067 37.6294 84.4647 37.998C84.6227 38.349 84.7016 38.7264 84.7016 39.1301C84.7016 39.5865 84.6665 40.0165 84.5963 40.4202C84.5437 40.824 84.4822 41.254 84.412 41.7104L83.1482 49.9514H80.8049ZM72.6166 50.0567C72.3884 50.0567 72.2041 50.0128 72.0637 49.9251C71.9408 49.8549 71.8706 49.653 71.853 49.3195C71.8355 48.986 71.8706 48.4506 71.9583 47.7134L73.1958 36.7605H75.5391C75.9428 36.7605 76.2412 36.9536 76.4343 37.3397C76.6449 37.7259 76.7502 38.1647 76.7502 38.6562C76.7502 38.8844 76.6625 39.2442 76.4869 39.7357C76.3114 40.2096 76.1183 40.7186 75.9077 41.2628C75.6971 41.7894 75.5215 42.2545 75.3811 42.6582L74.6966 44.8172L75.9867 44.6592L75.5654 48.8982C75.5479 49.1089 75.4075 49.2932 75.1442 49.4511C74.8809 49.6091 74.5649 49.732 74.1963 49.8198C73.8453 49.9075 73.5205 49.969 73.2221 50.0041C72.9237 50.0392 72.7219 50.0567 72.6166 50.0567Z" fill="white" />
    <path d="M67.395 50.1094C67.0791 50.1094 66.8333 49.89 66.6578 49.4511C66.4823 49.0123 66.3945 48.5384 66.3945 48.0294C66.3945 47.5379 66.4121 47.0991 66.4472 46.7129C66.4823 46.3092 66.535 45.8089 66.6052 45.2121L67.553 36.7605H69.949C70.3702 36.7605 70.6511 36.9536 70.7915 37.3397C70.9495 37.7259 71.0285 38.1647 71.0285 38.6562C71.0285 38.9019 71.0109 39.1652 70.9758 39.4461C70.9407 39.7094 70.888 40.1218 70.8178 40.6835L70.3176 44.9752C70.2298 45.8528 70.142 46.5988 70.0543 47.2132C69.9665 47.8275 69.8875 48.3629 69.8173 48.8192C69.7647 49.2756 69.712 49.7057 69.6593 50.1094H67.395ZM69.712 35.681C69.1503 35.681 68.6588 35.4879 68.2376 35.1018C67.8163 34.698 67.6057 34.1802 67.6057 33.5483C67.6057 32.8111 67.8426 32.2319 68.3166 31.8106C68.808 31.3893 69.3785 31.1787 70.028 31.1787C70.6072 31.1787 71.0987 31.3542 71.5024 31.7053C71.9061 32.0563 72.108 32.5742 72.108 33.2587C72.108 33.9608 71.871 34.5401 71.3971 34.9964C70.9231 35.4528 70.3615 35.681 69.712 35.681Z" fill="white" />
    <path d="M58.4254 50.1094C56.951 50.1094 55.6345 49.8197 54.476 49.2405C53.3176 48.6437 52.4048 47.7573 51.7378 46.5813C51.0708 45.4052 50.7373 43.9571 50.7373 42.2369C50.7373 40.6572 51.0006 39.2091 51.5272 37.8926C52.0538 36.5586 52.791 35.4089 53.7388 34.4435C54.7042 33.4606 55.8364 32.7058 57.1353 32.1792C58.4517 31.6351 59.8823 31.363 61.4269 31.363C62.9365 31.363 64.0862 31.5298 64.8761 31.8633C65.6659 32.1968 66.0609 32.8111 66.0609 33.7063C66.0609 34.1802 65.9643 34.5927 65.7712 34.9438C65.5782 35.2948 65.3675 35.4704 65.1393 35.4704C64.9814 35.4704 64.7532 35.3914 64.4548 35.2334C64.1739 35.0579 63.9107 34.8999 63.6649 34.7595C63.2436 34.4962 62.7785 34.2329 62.2695 33.9696C61.778 33.6887 61.1724 33.5483 60.4528 33.5483C59.3996 33.5483 58.4605 33.8906 57.6355 34.5752C56.8281 35.2422 56.1874 36.19 55.7135 37.4187C55.2571 38.6474 55.029 40.0955 55.029 41.763C55.029 43.1497 55.2045 44.2994 55.5555 45.2121C55.9066 46.1249 56.3893 46.8007 57.0036 47.2395C57.618 47.6783 58.3113 47.8977 59.0836 47.8977C59.7507 47.8977 60.3474 47.7573 60.874 47.4764C61.4182 47.1956 61.8921 46.8709 62.2958 46.5023C62.7171 46.1337 63.0945 45.8177 63.428 45.5544C63.7615 45.2736 64.0774 45.1332 64.3758 45.1332C64.604 45.1332 64.7883 45.2034 64.9287 45.3438C65.0691 45.4842 65.1393 45.7036 65.1393 46.002C65.1393 46.7392 64.8322 47.4238 64.2178 48.0557C63.621 48.6876 62.8136 49.1878 61.7955 49.5564C60.7775 49.9251 59.6541 50.1094 58.4254 50.1094Z" fill="white" />
    <path d="M45.342 49.9514C45.0787 49.9514 44.8857 49.8373 44.7628 49.6091C44.6399 49.3809 44.5522 49.1264 44.4995 48.8456C44.4644 48.5647 44.4468 48.3541 44.4468 48.2137C44.4468 47.9679 44.4644 47.6783 44.4995 47.3448C44.5346 46.9938 44.5697 46.6339 44.6048 46.2653C44.6575 45.8792 44.7101 45.5281 44.7628 45.2122L45.2104 42.4739C45.263 42.1229 45.3245 41.7718 45.3947 41.4208C45.4649 41.0697 45.5 40.7538 45.5 40.4729C45.5 40.2623 45.4561 40.1043 45.3684 39.999C45.2806 39.8937 45.1665 39.841 45.0261 39.841C44.7979 39.841 44.4381 40.0604 43.9466 40.4992C43.4727 40.9205 42.9636 41.5348 42.4195 42.3423C41.8929 43.1322 41.4102 44.08 40.9714 45.1858C40.5326 46.2916 40.243 47.5291 40.1025 48.8982L39.181 44.8962C39.7076 43.3691 40.3044 42.0878 40.9714 41.0521C41.6384 40.0165 42.323 39.1916 43.0251 38.5772C43.7272 37.9453 44.403 37.4889 45.0524 37.2081C45.7019 36.9272 46.2811 36.7868 46.7901 36.7868C47.3869 36.7868 47.8609 36.9009 48.2119 37.1291C48.5805 37.3397 48.8438 37.6294 49.0018 37.998C49.1598 38.349 49.2388 38.7264 49.2388 39.1301C49.2388 39.5865 49.2036 40.0165 49.1334 40.4202C49.0808 40.824 49.0193 41.254 48.9491 41.7104L47.6853 49.9514H45.342ZM37.1537 50.0567C36.9255 50.0567 36.7412 50.0128 36.6008 49.9251C36.4779 49.8549 36.4077 49.653 36.3901 49.3195C36.3726 48.986 36.4077 48.4506 36.4954 47.7134L37.7329 36.7605H40.0762C40.4799 36.7605 40.7783 36.9536 40.9714 37.3397C41.182 37.7259 41.2874 38.1647 41.2874 38.6562C41.2874 38.8844 41.1996 39.2442 41.0241 39.7357C40.8485 40.2096 40.6554 40.7186 40.4448 41.2628C40.2342 41.7894 40.0587 42.2545 39.9182 42.6582L39.2337 44.8172L40.5238 44.6592L40.1025 48.8982C40.085 49.1089 39.9446 49.2932 39.6813 49.4511C39.418 49.6091 39.102 49.732 38.7334 49.8198C38.3824 49.9075 38.0576 49.969 37.7592 50.0041C37.4608 50.0392 37.259 50.0567 37.1537 50.0567Z" fill="white" />
    <path d="M31.9321 50.1094C31.6162 50.1094 31.3705 49.89 31.1949 49.4511C31.0194 49.0123 30.9316 48.5384 30.9316 48.0294C30.9316 47.5379 30.9492 47.0991 30.9843 46.7129C31.0194 46.3092 31.0721 45.8089 31.1423 45.2121L32.0901 36.7605H34.4861C34.9073 36.7605 35.1882 36.9536 35.3286 37.3397C35.4866 37.7259 35.5656 38.1647 35.5656 38.6562C35.5656 38.9019 35.548 39.1652 35.5129 39.4461C35.4778 39.7094 35.4251 40.1218 35.3549 40.6835L34.8547 44.9752C34.7669 45.8528 34.6792 46.5988 34.5914 47.2132C34.5036 47.8275 34.4246 48.3629 34.3544 48.8192C34.3018 49.2756 34.2491 49.7057 34.1965 50.1094H31.9321ZM34.2491 35.681C33.6874 35.681 33.1959 35.4879 32.7747 35.1018C32.3534 34.698 32.1428 34.1802 32.1428 33.5483C32.1428 32.8111 32.3797 32.2319 32.8537 31.8106C33.3451 31.3893 33.9156 31.1787 34.5651 31.1787C35.1443 31.1787 35.6358 31.3542 36.0395 31.7053C36.4432 32.0563 36.6451 32.5742 36.6451 33.2587C36.6451 33.9608 36.4081 34.5401 35.9342 34.9964C35.4603 35.4528 34.8986 35.681 34.2491 35.681Z" fill="white" />
    <path d="M22.962 50.1094C21.4876 50.1094 20.1711 49.8197 19.0127 49.2405C17.8542 48.6437 16.9414 47.7573 16.2744 46.5813C15.6074 45.4052 15.2739 43.9571 15.2739 42.2369C15.2739 40.6572 15.5372 39.2091 16.0638 37.8926C16.5904 36.5586 17.3276 35.4089 18.2754 34.4435C19.2409 33.4606 20.373 32.7058 21.6719 32.1792C22.9884 31.6351 24.4189 31.363 25.9636 31.363C27.4731 31.363 28.6228 31.5298 29.4127 31.8633C30.2026 32.1968 30.5975 32.8111 30.5975 33.7063C30.5975 34.1802 30.5009 34.5927 30.3079 34.9438C30.1148 35.2948 29.9042 35.4704 29.676 35.4704C29.518 35.4704 29.2898 35.3914 28.9914 35.2334C28.7106 35.0579 28.4473 34.8999 28.2015 34.7595C27.7803 34.4962 27.3151 34.2329 26.8061 33.9696C26.3146 33.6887 25.709 33.5483 24.9894 33.5483C23.9362 33.5483 22.9971 33.8906 22.1722 34.5752C21.3647 35.2422 20.7241 36.19 20.2501 37.4187C19.7938 38.6474 19.5656 40.0955 19.5656 41.763C19.5656 43.1497 19.7411 44.2994 20.0922 45.2121C20.4432 46.1249 20.9259 46.8007 21.5403 47.2395C22.1546 47.6783 22.8479 47.8977 23.6203 47.8977C24.2873 47.8977 24.8841 47.7573 25.4106 47.4764C25.9548 47.1956 26.4287 46.8709 26.8324 46.5023C27.2537 46.1337 27.6311 45.8177 27.9646 45.5544C28.2981 45.2736 28.614 45.1332 28.9124 45.1332C29.1406 45.1332 29.3249 45.2034 29.4653 45.3438C29.6058 45.4842 29.676 45.7036 29.676 46.002C29.676 46.7392 29.3688 47.4238 28.7544 48.0557C28.1577 48.6876 27.3502 49.1878 26.3322 49.5564C25.3141 49.9251 24.1907 50.1094 22.962 50.1094Z" fill="white" />
    <path fill-rule="evenodd" clip-rule="evenodd" d="M63.0956 9.90725C62.6705 8.7753 62.0495 7.76826 61.5778 7.09315C61.3629 6.75369 60.75 6.75096 60.75 6.75096L62.5742 5.4803C62.5742 5.4803 62.4854 5.95199 62.7196 6.28672C63.3547 7.19442 64.259 8.68379 64.7053 10.3495C65.7432 14.2232 63.6296 18.1989 59.936 19.5541L61.5768 25.6775C61.694 26.0609 62.1131 26.1712 62.1131 26.1712L60.0359 26.7278C60.0359 26.7278 60.3303 26.4263 60.2151 25.9965L58.5858 19.9159C54.7095 20.589 50.8912 18.2028 49.8532 14.3291C49.3869 12.589 49.4497 10.7656 49.5546 9.67376C49.58 9.40999 49.2412 9.08236 49.2412 9.08236L51.3833 9.18379C51.3833 9.18379 50.973 9.52201 50.9435 9.83505C50.8662 10.6577 50.8193 11.8939 51.0262 13.1412C51.1025 13.6013 51.2105 14.0575 51.37 14.4962C51.4323 14.6675 51.5015 14.8346 51.5771 14.9973C51.7857 15.4462 52.0435 15.8619 52.3421 16.2395C52.4664 16.3966 52.5977 16.5471 52.7354 16.6907C53.1415 17.114 53.6036 17.4769 54.1062 17.7705C54.3392 17.9066 54.5809 18.0278 54.8297 18.1332C56.0752 18.6608 57.4995 18.7923 58.9073 18.4151C60.3151 18.0379 61.4827 17.2119 62.2976 16.1322C62.4604 15.9165 62.6091 15.6907 62.7428 15.4563C63.0312 14.9508 63.25 14.4054 63.39 13.8358C63.4375 13.6426 63.476 13.4466 63.505 13.2484C63.5748 12.7721 63.5902 12.2832 63.5465 11.7901C63.5306 11.6114 63.5069 11.4321 63.4752 11.2526C63.3941 10.793 63.2595 10.3439 63.0956 9.90725Z" fill="white" />
    <path d="M51.37 14.4962L63.4752 11.2526C63.3941 10.793 63.2595 10.3439 63.0956 9.90725L51.0262 13.1412C51.1025 13.6013 51.2105 14.0575 51.37 14.4962Z" fill="#E73029" />
    <path d="M63.505 13.2484C63.5748 12.7721 63.5902 12.2832 63.5465 11.7901L51.5771 14.9973C51.7857 15.4462 52.0435 15.8619 52.3421 16.2395L63.505 13.2484Z" fill="#E73029" />
    <path d="M62.7428 15.4563C63.0312 14.9508 63.25 14.4054 63.39 13.8358L52.7354 16.6907C53.1415 17.114 53.6036 17.4769 54.1062 17.7705L62.7428 15.4563Z" fill="#E73029" />
    <path d="M58.9073 18.4151C60.3151 18.0379 61.4827 17.2119 62.2976 16.1322L54.8297 18.1332C56.0752 18.6608 57.4995 18.7923 58.9073 18.4151Z" fill="#E73029" />
    <path fill-rule="evenodd" clip-rule="evenodd" d="M49.4382 16.2529C49.6361 15.06 49.6018 13.8774 49.5308 13.0569C49.4503 11.2576 49.5362 10.9253 49.8094 10.8986C50.1924 10.8611 50.8631 12.2423 50.9229 12.9294C51.0191 14.0331 51.0575 15.775 50.6112 17.4407C49.5732 21.3144 45.7549 23.7007 41.8786 23.0276L40.2378 29.151C40.1476 29.5415 40.4555 29.8467 40.4555 29.8467L38.3782 29.2901C38.3782 29.2901 38.7839 29.1761 38.8991 28.7463L40.5284 22.6658C36.8348 21.3105 34.7212 17.3348 35.7591 13.4611C36.2254 11.721 37.1914 10.1733 37.8282 9.28021C37.982 9.06445 37.8525 8.61134 37.8525 8.61134L39.6568 9.77018C39.6568 9.77018 39.1324 9.85795 38.9504 10.1143C38.472 10.7881 37.8133 11.8352 37.3688 13.0189C37.2049 13.4555 37.0703 13.9046 36.9892 14.3643C36.9575 14.5437 36.9338 14.723 36.9179 14.9018C36.8742 15.3948 36.8896 15.8837 36.9594 16.36C36.9884 16.5582 37.0269 16.7542 37.0744 16.9474C37.2144 17.517 37.4332 18.0624 37.7216 18.568C37.8553 18.8024 38.004 19.0282 38.1668 19.2439C38.9817 20.3235 40.1493 21.1496 41.5571 21.5268C42.9649 21.904 44.3892 21.7724 45.6347 21.2449C45.8835 21.1395 46.1252 21.0183 46.3582 20.8821C46.8608 20.5886 47.3229 20.2256 47.729 19.8023C47.8667 19.6587 47.998 19.5082 48.1223 19.3511C48.4209 18.9735 48.6787 18.5578 48.8873 18.109C48.9629 17.9462 49.0321 17.7791 49.0944 17.6079C49.2539 17.1692 49.3619 16.713 49.4382 16.2529Z" fill="white" />
    <path d="M36.9892 14.3643L49.0944 17.6079C49.2539 17.1692 49.3619 16.713 49.4382 16.2529L37.3688 13.0189C37.2049 13.4555 37.0703 13.9046 36.9892 14.3643Z" fill="#00A277" />
    <path d="M48.1223 19.3511C48.4209 18.9735 48.6787 18.5578 48.8873 18.109L36.9179 14.9018C36.8742 15.3948 36.8896 15.8837 36.9594 16.36L48.1223 19.3511Z" fill="#00A277" />
    <path d="M46.3582 20.8821C46.8608 20.5886 47.3229 20.2256 47.729 19.8023L37.0744 16.9474C37.2144 17.517 37.4332 18.0624 37.7216 18.568L46.3582 20.8821Z" fill="#00A277" />
    <path d="M41.5571 21.5268C42.9649 21.904 44.3892 21.7724 45.6347 21.2449L38.1668 19.2439C38.9817 20.3235 40.1493 21.1496 41.5571 21.5268Z" fill="#00A277" />
</svg>
