<svg width="453" height="424" viewBox="0 0 453 424" fill="none" xmlns="http://www.w3.org/2000/svg">
<g filter="url(#filter0_n_1_2999)">
<rect y="105.5" width="451.728" height="276.286" rx="27.6286" fill="#10291D"/>
<rect x="0.690716" y="106.191" width="450.347" height="274.905" rx="26.9379" stroke="url(#paint0_linear_1_2999)" stroke-opacity="0.25" stroke-width="1.38143"/>
</g>
<g clip-path="url(#clip0_1_2999)">
<rect x="34.4902" y="321.269" width="342.608" height="204.423" rx="14.8464" transform="rotate(-69.2856 34.4902 321.269)" fill="url(#paint1_linear_1_2999)"/>
<g filter="url(#filter1_dn_1_2999)">
<rect x="32.3555" y="320.461" width="342.608" height="205.565" rx="14.8464" transform="rotate(-69.2856 32.3555 320.461)" fill="url(#paint2_linear_1_2999)"/>
<rect x="32.3555" y="320.461" width="342.608" height="205.565" rx="14.8464" transform="rotate(-69.2856 32.3555 320.461)" fill="#00281D"/>
<rect x="32.3555" y="320.461" width="342.608" height="205.565" rx="14.8464" transform="rotate(-69.2856 32.3555 320.461)" fill="url(#paint3_radial_1_2999)" fill-opacity="0.2"/>
<rect x="32.3555" y="320.461" width="342.608" height="205.565" rx="14.8464" transform="rotate(-69.2856 32.3555 320.461)" fill="url(#paint4_radial_1_2999)" fill-opacity="0.15"/>
<rect x="32.3555" y="320.461" width="342.608" height="205.565" rx="14.8464" transform="rotate(-69.2856 32.3555 320.461)" fill="url(#paint5_linear_1_2999)" fill-opacity="0.2"/>
<rect x="32.7404" y="320.288" width="342.011" height="204.968" rx="14.5477" transform="rotate(-69.2856 32.7404 320.288)" stroke="url(#paint6_linear_1_2999)" stroke-opacity="0.4" stroke-width="0.597274"/>
</g>
<path d="M158.048 52.7217L164.135 54.8824L163.444 56.8301L148.413 51.4944L150.245 46.3311C150.71 45.0226 151.539 44.0603 152.728 43.4545C153.925 42.8283 155.147 42.7367 156.394 43.1796C157.672 43.6331 158.563 44.4747 159.087 45.7116C159.621 46.9179 159.648 48.1838 159.18 49.5025L158.038 52.7182L158.048 52.7217ZM150.955 50.2039L156.197 52.0646L157.353 48.8084C157.627 48.0374 157.595 47.2954 157.262 46.606C156.933 45.9065 156.403 45.4214 155.698 45.1714C155.004 44.9249 154.297 44.9708 153.6 45.306C152.887 45.624 152.398 46.1702 152.121 46.9513L150.965 50.2075L150.955 50.2039Z" fill="white" stroke="white" stroke-width="0.4"/>
<path d="M158.142 38.0649C158.653 36.6245 159.439 35.6241 160.499 35.0637C161.559 34.5033 162.753 34.4588 164.081 34.9302L170.419 37.1802L169.76 39.0365L168.332 38.5294L168.303 38.6105C169.196 39.8298 169.397 41.1122 168.922 42.4512C168.515 43.5975 167.845 44.4332 166.897 44.9648C165.949 45.4965 164.977 45.5855 163.971 45.2284C162.905 44.8498 162.204 44.1441 161.868 43.1111C161.522 42.0746 161.596 40.8785 162.075 39.5293C162.485 38.3729 163.035 37.4944 163.72 36.9039L163.278 36.7467C162.603 36.5074 161.946 36.5712 161.283 36.941C160.619 37.3107 160.164 37.8575 159.909 38.5778C159.523 39.6632 159.67 40.6861 160.362 41.6401L158.687 42.9758C157.664 41.5503 157.487 39.9111 158.142 38.0649ZM164.714 43.2306C165.217 43.4092 165.716 43.3461 166.203 43.0278C166.686 42.7196 167.037 42.2731 167.242 41.6949C167.534 40.8732 167.491 40.0357 167.114 39.1824C166.738 38.329 166.149 37.7544 165.334 37.4651C164.645 37.9059 164.104 38.6622 163.719 39.7476C163.438 40.5388 163.395 41.266 163.58 41.9257C163.782 42.6026 164.161 43.0342 164.714 43.2306Z" fill="white" stroke="white" stroke-width="0.4"/>
<path d="M163.885 20.9669L176.39 32.7161L175.677 34.7246L171.353 30.4711L160.205 31.3341L160.957 29.214L169.437 28.7516L169.451 28.711L163.132 23.087L163.885 20.9669Z" fill="white" stroke="white" stroke-width="0.4"/>
<path d="M154.071 60.0351C153.441 59.8115 152.818 59.6544 152.201 59.5542L149.303 67.7181L152.623 68.8966L154.293 64.1952C155.33 64.7781 156.054 65.7261 156.348 66.8893L158.502 67.6539L159.496 64.8552C158.576 62.6885 156.691 60.965 154.071 60.0351Z" fill="#4285F4"/>
<path d="M156.348 66.8879C156.593 67.8519 156.541 68.9634 156.125 70.1371C155.32 72.4043 153.122 73.7897 150.835 73.7535L149.81 76.6405L152.032 77.4291C155.355 76.998 158.33 74.744 159.536 71.3478C160.369 69.0004 160.303 66.7567 159.495 64.8534L156.348 66.8879Z" fill="#34A853"/>
<path d="M149.092 73.4405C148.518 73.2369 147.998 72.9438 147.539 72.5833L145.318 71.7947L144.293 74.6817C145.247 75.6863 146.443 76.4855 147.835 76.9797C149.228 77.474 150.66 77.6067 152.034 77.4295L150.837 73.754C150.254 73.7445 149.665 73.6441 149.092 73.4405Z" fill="#FABB05"/>
<path d="M145.714 66.4414C146.169 65.1602 147.014 64.1683 148.191 63.566L146.613 60.2133C144.687 61.2258 143.136 62.8865 142.304 65.2307C141.098 68.6259 141.986 72.2524 144.294 74.682L147.54 72.5835C145.742 71.1698 144.909 68.7086 145.714 66.4414Z" fill="#E94235"/>
<g style="mix-blend-mode:lighten" opacity="0.14" filter="url(#filter2_f_1_2999)">
<ellipse cx="148.739" cy="251.317" rx="151.115" ry="101.585" transform="rotate(-69.2856 148.739 251.317)" fill="url(#paint7_linear_1_2999)"/>
</g>
<path d="M77.5423 308.429C76.0702 312.321 72.3374 313.684 67.8235 311.977L67.8041 311.969C63.2805 310.259 61.3794 306.777 62.8515 302.884C64.0188 299.798 66.8657 298.167 69.7911 298.851L69.836 298.88L69.0211 301.035L68.992 301.024C67.1196 300.781 65.471 301.767 64.7735 303.611C63.8228 306.125 65.3151 308.487 68.6447 309.746L68.6642 309.754C71.984 311.009 74.6658 310.226 75.6202 307.702C76.3214 305.848 75.8561 304.085 74.4244 303.089L74.3929 303.055L75.2078 300.9L75.266 300.922C77.8008 302.346 78.7243 305.303 77.5423 308.429ZM80.3173 300.063L69.7752 296.077L70.5718 293.97L72.1638 294.572L72.2225 294.417C71.2493 293.616 70.96 292.386 71.4923 290.979C71.6207 290.639 71.8088 290.288 71.9381 290.093L73.8795 290.827C73.6587 291.177 73.4743 291.517 73.3238 291.915C72.7145 293.527 73.2898 294.998 74.8139 295.575L81.1139 297.957L80.3173 300.063ZM87.4009 292.54C87.3018 292.802 87.1649 293.105 87.033 293.366L85.3731 292.738C85.4793 292.545 85.5881 292.287 85.6799 292.044C86.0506 291.064 85.8535 290.323 84.9068 289.599L84.4219 289.238L72.4238 289.073L73.2828 286.801L82.7072 287.347L82.7769 287.163L75.3458 281.346L76.1828 279.133L85.6496 287.195C87.8357 289.043 88.2085 290.404 87.4009 292.54ZM90.9713 282.511L76.9152 277.196L77.7118 275.089L79.3717 275.717L79.4304 275.562C78.5065 274.513 78.2541 273.098 78.8121 271.622C79.8179 268.962 82.5899 268.058 85.9098 269.313L85.9292 269.32C89.2685 270.583 90.7266 273.065 89.7134 275.744C89.1664 277.191 87.9916 278.156 86.6429 278.289L86.5842 278.445L91.7679 280.405L90.9713 282.511ZM87.6936 275.657C88.3581 273.9 87.3797 272.321 85.1179 271.466L85.0985 271.458C82.827 270.599 81.0582 271.14 80.3937 272.897C79.7293 274.654 80.7063 276.266 82.9584 277.118L82.9778 277.125C85.2299 277.977 87.0292 277.414 87.6936 275.657ZM93.6465 265.021C92.7691 267.341 91.594 267.984 89.5652 267.217L83.4593 264.908L82.8352 266.558L81.1753 265.93L81.7993 264.28L79.1395 263.274L79.9508 261.129L82.6106 262.135L83.4659 259.873L85.1259 260.501L84.2705 262.762L89.8716 264.881C91.0074 265.31 91.6349 265.059 92.0276 264.02C92.1488 263.7 92.2088 263.512 92.2898 263.21L93.9692 263.845C93.899 264.207 93.8007 264.613 93.6465 265.021ZM96.71 257.331C95.539 260.427 92.7555 261.538 89.3579 260.253L89.3385 260.246C85.9507 258.965 84.5928 256.277 85.7601 253.19C86.9238 250.113 89.711 248.992 93.1085 250.277L93.1279 250.284C96.5255 251.569 97.8773 254.244 96.71 257.331ZM94.9529 256.666C95.6357 254.861 94.6464 253.31 92.3167 252.429L92.2972 252.422C89.9578 251.537 88.1999 252.049 87.5172 253.854C86.8307 255.67 87.814 257.206 90.1535 258.091L90.1729 258.098C92.5123 258.983 94.2665 258.481 94.9529 256.666ZM101.87 244.097C100.398 247.99 96.6647 249.352 92.1508 247.645L92.1314 247.638C87.6078 245.927 85.7067 242.446 87.1787 238.553C88.3461 235.466 91.1929 233.835 94.1184 234.52L94.1633 234.548L93.3483 236.703L93.3192 236.692C91.4468 236.45 89.7982 237.436 89.1008 239.28C88.15 241.794 89.6424 244.156 92.972 245.415L92.9914 245.422C96.3113 246.678 98.9931 245.894 99.9475 243.371C100.649 241.516 100.183 239.754 98.7516 238.758L98.7201 238.723L99.5351 236.568L99.5933 236.59C102.128 238.015 103.052 240.972 101.87 244.097ZM105.913 232.905C105.153 234.915 103.369 235.937 101.456 235.214L101.437 235.207C99.5536 234.495 98.9926 232.663 99.7881 230.09L100.702 227.174L99.7704 226.821C98.6152 226.384 97.6992 226.87 97.1596 228.297C96.7191 229.462 96.8562 230.39 97.5083 230.925L97.5434 230.95L96.7762 232.979L96.7119 232.943C95.0795 232.037 94.552 229.941 95.4587 227.543C96.4609 224.893 98.3464 223.897 100.56 224.734L107.772 227.461L106.983 229.549L105.488 228.983L105.426 229.148C106.258 230.173 106.442 231.508 105.913 232.905ZM102.162 233.085C103.133 233.452 104.017 232.843 104.447 231.707C105.041 230.135 104.449 228.59 103.09 228.077L102.188 227.735L101.38 230.37C100.916 231.859 101.191 232.717 102.142 233.077L102.162 233.085ZM108.82 224.69L98.2781 220.703L99.0747 218.597L100.667 219.199L100.725 219.044C99.7523 218.243 99.4629 217.013 99.9952 215.605C100.124 215.265 100.312 214.915 100.441 214.72L102.382 215.454C102.162 215.803 101.977 216.144 101.827 216.542C101.217 218.153 101.793 219.625 103.317 220.201L109.617 222.583L108.82 224.69ZM113.281 213.422C112.279 216.073 109.503 216.987 106.193 215.735L106.173 215.728C102.834 214.465 101.366 211.979 102.38 209.3C102.926 207.854 104.111 206.893 105.46 206.759L105.522 206.594L99.7171 204.399L100.51 202.302L115.187 207.852L114.395 209.949L112.735 209.321L112.672 209.486C113.596 210.535 113.839 211.947 113.281 213.422ZM111.713 212.142C112.377 210.385 111.396 208.782 109.144 207.93L109.125 207.923C106.873 207.071 105.073 207.634 104.413 209.381C103.745 211.148 104.723 212.727 106.985 213.582L107.004 213.59C109.266 214.445 111.044 213.908 111.713 212.142Z" fill="white"/>
<circle cx="297.843" cy="100.423" r="22.4973" transform="rotate(-69.2864 297.843 100.423)" fill="#F79E1B"/>
<circle cx="288.692" cy="124.623" r="22.4973" transform="rotate(-69.2864 288.692 124.623)" fill="#EB001B"/>
<path d="M310.486 119.034C308.723 112.185 303.767 106.271 296.649 103.579C289.531 100.888 281.902 102.043 276.049 106.012C277.811 112.861 282.767 118.775 289.885 121.466C297.003 124.158 304.632 123.003 310.486 119.034Z" fill="#FF5F00"/>
</g>
<g clip-path="url(#clip1_1_2999)">
<rect x="33.2441" y="260.564" width="342.608" height="204.423" rx="14.8464" transform="rotate(-44.98 33.2441 260.564)" fill="url(#paint8_linear_1_2999)"/>
<g filter="url(#filter3_dn_1_2999)">
<rect x="31.6309" y="258.95" width="342.608" height="205.565" rx="14.8464" transform="rotate(-44.98 31.6309 258.95)" fill="url(#paint9_linear_1_2999)"/>
<rect x="31.6309" y="258.95" width="342.608" height="205.565" rx="14.8464" transform="rotate(-44.98 31.6309 258.95)" fill="#060A09"/>
<rect x="32.0532" y="258.95" width="342.011" height="204.968" rx="14.5477" transform="rotate(-44.98 32.0532 258.95)" stroke="url(#paint10_linear_1_2999)" stroke-opacity="0.4" stroke-width="0.597274"/>
</g>
<path d="M77.7641 266.583C74.8203 269.525 70.8576 269.23 67.4464 265.816L67.4318 265.802C64.0132 262.381 63.7137 258.425 66.6575 255.483C68.9919 253.151 72.2577 252.836 74.642 254.664L74.6714 254.708L73.0417 256.337L73.0197 256.315C71.4129 255.324 69.5048 255.543 68.11 256.937C66.2087 258.837 66.5966 261.604 69.1129 264.122L69.1275 264.136C71.6364 266.647 74.4029 267.037 76.3116 265.13C77.7137 263.728 78.0152 261.931 77.1204 260.433L77.1058 260.389L78.7355 258.761L78.7795 258.805C80.5032 261.146 80.1279 264.221 77.7641 266.583ZM83.7363 260.101L75.7695 252.129L77.3625 250.537L78.5656 251.741L78.6831 251.624C78.1258 250.493 78.3684 249.253 79.4328 248.19C79.6897 247.933 80.0054 247.691 80.2036 247.566L81.6708 249.034C81.3258 249.262 81.0175 249.496 80.7165 249.797C79.4979 251.015 79.4166 252.593 80.5683 253.745L85.3294 258.51L83.7363 260.101ZM93.2889 256.16C93.0907 256.358 92.8411 256.578 92.6136 256.762L91.3591 255.506C91.5353 255.374 91.7408 255.184 91.9243 255C92.6658 254.259 92.7908 253.503 92.2261 252.454L91.9328 251.925L81.0662 246.836L82.784 245.119L91.1484 249.496L91.2879 249.357L86.9097 240.997L88.5835 239.324L93.8926 250.568C95.1246 253.152 94.9039 254.546 93.2889 256.16ZM100.671 248.49L90.0482 237.86L91.6412 236.269L92.8956 237.524L93.0131 237.406C92.6026 236.071 92.9553 234.677 94.0711 233.561C96.0826 231.551 98.9812 231.868 101.49 234.379L101.505 234.393C104.028 236.919 104.336 239.781 102.309 241.805C101.216 242.898 99.7477 243.294 98.4637 242.861L98.3462 242.978L102.264 246.898L100.671 248.49ZM100.504 240.895C101.833 239.567 101.592 237.725 99.8824 236.015L99.8677 236C98.1511 234.282 96.3166 234.047 94.9878 235.374C93.6591 236.702 93.8859 238.574 95.5879 240.277L95.6025 240.291C97.3045 241.994 99.1757 242.223 100.504 240.895ZM110.308 233.651C108.553 235.405 107.218 235.507 105.684 233.973L101.07 229.355L99.822 230.602L98.5676 229.347L99.8156 228.1L97.8055 226.088L99.4279 224.467L101.438 226.479L103.148 224.769L104.403 226.025L102.692 227.734L106.925 231.97C107.784 232.829 108.459 232.858 109.244 232.073C109.486 231.831 109.619 231.684 109.817 231.442L111.086 232.712C110.873 233.013 110.616 233.343 110.308 233.651ZM116.265 227.904C113.923 230.244 110.929 230.111 108.362 227.541L108.347 227.527C105.787 224.965 105.656 221.956 107.99 219.623C110.317 217.297 113.319 217.423 115.886 219.993L115.901 220.007C118.468 222.577 118.599 225.571 116.265 227.904ZM114.937 226.575C116.303 225.21 116.039 223.39 114.278 221.628L114.264 221.614C112.496 219.845 110.683 219.587 109.318 220.952C107.945 222.323 108.209 224.129 109.977 225.898L109.991 225.913C111.759 227.682 113.564 227.947 114.937 226.575ZM126.414 217.967C123.47 220.909 119.508 220.614 116.096 217.2L116.082 217.186C112.663 213.765 112.364 209.809 115.307 206.867C117.642 204.535 120.908 204.22 123.292 206.048L123.321 206.092L121.692 207.721L121.67 207.699C120.063 206.708 118.155 206.927 116.76 208.321C114.859 210.221 115.247 212.988 117.763 215.506L117.778 215.52C120.286 218.031 123.053 218.421 124.962 216.513C126.364 215.112 126.665 213.315 125.77 211.817L125.756 211.773L127.385 210.145L127.429 210.189C129.153 212.53 128.778 215.605 126.414 217.967ZM134.706 209.431C133.186 210.95 131.139 211.147 129.694 209.701L129.679 209.687C128.256 208.262 128.499 206.362 130.283 204.344L132.316 202.063L131.612 201.358C130.739 200.484 129.704 200.55 128.625 201.629C127.744 202.509 127.487 203.411 127.861 204.167L127.883 204.204L126.349 205.737L126.305 205.679C125.19 204.181 125.572 202.053 127.385 200.241C129.39 198.238 131.518 198.107 133.19 199.781L138.641 205.235L137.063 206.812L135.933 205.682L135.808 205.807C136.145 207.084 135.763 208.375 134.706 209.431ZM131.213 208.051C131.947 208.785 133.004 208.594 133.863 207.736C135.052 206.548 135.148 204.896 134.121 203.869L133.439 203.186L131.618 205.255C130.583 206.421 130.48 207.316 131.199 208.036L131.213 208.051ZM140.737 203.141L132.77 195.168L134.363 193.576L135.566 194.78L135.684 194.663C135.126 193.533 135.369 192.292 136.433 191.229C136.69 190.972 137.006 190.73 137.204 190.605L138.671 192.073C138.326 192.301 138.018 192.536 137.717 192.836C136.498 194.054 136.417 195.632 137.569 196.784L142.33 201.549L140.737 203.141ZM149.44 194.708C147.436 196.711 144.53 196.401 142.028 193.898L142.014 193.883C139.49 191.358 139.175 188.489 141.202 186.464C142.295 185.371 143.771 184.982 145.055 185.416L145.179 185.291L140.793 180.901L142.378 179.317L153.47 190.416L151.884 192.001L150.63 190.746L150.505 190.87C150.916 192.206 150.556 193.593 149.44 194.708ZM148.538 192.895C149.866 191.567 149.632 189.703 147.93 188L147.916 187.985C146.214 186.282 144.343 186.054 143.021 187.375C141.685 188.71 141.927 190.552 143.636 192.262L143.651 192.277C145.36 193.987 147.202 194.23 148.538 192.895Z" fill="white"/>
<path d="M249.266 66.6077C249.346 67.4461 249.047 68.4302 248.537 68.9403C248.478 68.9986 248.413 69.0496 248.369 69.0788C248.332 69.0569 248.23 68.9839 248.143 68.8964C247.56 68.313 247.276 67.4308 247.232 66.7455C247.16 65.8561 247.488 64.8137 248.035 64.2234C248.115 64.2745 248.203 64.3474 248.283 64.4276C248.866 65.011 249.194 65.8349 249.266 66.6077ZM250.593 67.1331C250.914 66.8124 252.103 65.6829 253.954 66.0189C253.94 66.1355 253.436 67.936 254.886 69.3872C256.562 71.0645 258.626 70.1977 258.684 70.1686C258.713 70.2123 259.26 71.2113 259.514 72.5455C259.725 73.7192 259.914 74.9295 259.149 75.6947C258.376 76.4671 257.727 76.2118 256.845 77.0936C255.977 77.9608 256.137 78.7336 255.437 79.4332C254.729 80.1401 253.592 79.9793 252.244 79.7529C250.654 79.4753 248.686 78.556 247.316 77.185C245.123 74.9899 245.386 72.3947 246.794 70.9882C247.537 70.2449 248.646 70.1141 249.12 69.6404C249.564 69.1958 249.74 67.9857 250.593 67.1331ZM262.628 72.0867L252.112 61.5633L256.313 57.3657C258.449 55.2304 261.3 55.195 263.406 57.3026L263.42 57.3171C265.519 59.4174 265.489 62.2752 263.352 64.4104L261.033 66.7279L264.509 70.2065L262.628 72.0867ZM257.391 59.3636L255.531 61.2219L259.517 65.211L261.377 63.3527C262.726 62.0045 262.785 60.4881 261.524 59.2265L261.51 59.2119C260.249 57.9503 258.74 58.0154 257.391 59.3636ZM273.516 61.4681C272 62.984 269.966 63.1509 268.515 61.6997L268.501 61.6851C267.08 60.263 267.335 58.3458 269.159 56.2906L271.084 54.1188L270.399 53.4333C269.605 52.6384 268.65 52.7183 267.672 53.6948C266.841 54.5256 266.6 55.3639 266.943 56.0712L266.964 56.1076L265.251 57.8202L265.192 57.7473C264.026 56.2305 264.421 54.0582 266.317 52.1634C268.366 50.1156 270.51 49.956 272.193 51.6406L277.637 57.0882L275.843 58.881L274.75 57.7871L274.626 57.9109C274.961 59.1212 274.567 60.4187 273.516 61.4681ZM270.222 59.8194C270.9 60.4976 271.877 60.323 272.679 59.5214C273.773 58.4282 273.868 56.9046 272.921 55.9566L272.279 55.3148L270.602 57.2243C269.654 58.3029 269.551 59.1485 270.207 59.8048L270.222 59.8194ZM282.427 57.8985C282.208 58.1171 281.945 58.3649 281.705 58.5616L280.313 57.1687C280.473 57.0376 280.685 56.8408 280.874 56.6513C281.618 55.908 281.757 55.1572 281.232 54.2384L280.963 53.7791L270.139 48.6503L272.122 46.6681L280.206 51.0377L280.344 50.8992L275.973 42.8203L277.884 40.9109L283.158 51.9063C284.469 54.5895 284.192 56.1349 282.427 57.8985Z" fill="white"/>
<circle cx="364.154" cy="167.692" r="22.4973" transform="rotate(-44.9808 364.154 167.692)" fill="#F79E1B"/>
<circle cx="345.853" cy="185.98" r="22.4973" transform="rotate(-44.9808 345.853 185.98)" fill="#EB001B"/>
<path d="M368.016 189.857C369.229 182.889 367.146 175.46 361.766 170.077C356.387 164.694 348.959 162.607 341.991 163.815C340.778 170.782 342.861 178.212 348.24 183.594C353.619 188.977 361.047 191.065 368.016 189.857Z" fill="#FF5F00"/>
</g>
<g clip-path="url(#clip2_1_2999)">
<g filter="url(#filter4_dn_1_2999)">
<path d="M0 229.829C0 214.57 12.3698 202.201 27.6286 202.201H185.3C192.282 202.201 199.005 204.844 204.118 209.6L207.046 212.324C217.652 222.19 234.076 222.19 244.682 212.324L247.611 209.6C252.723 204.844 259.446 202.201 266.429 202.201H424.1C439.359 202.201 451.728 214.57 451.728 229.829V423.23C451.728 438.489 439.359 450.859 424.1 450.859H27.6286C12.3698 450.859 0 438.489 0 423.23V229.829Z" fill="black"/>
<path d="M0 229.829C0 214.57 12.3698 202.201 27.6286 202.201H185.3C192.282 202.201 199.005 204.844 204.118 209.6L207.046 212.324C217.652 222.19 234.076 222.19 244.682 212.324L247.611 209.6C252.723 204.844 259.446 202.201 266.429 202.201H424.1C439.359 202.201 451.728 214.57 451.728 229.829V423.23C451.728 438.489 439.359 450.859 424.1 450.859H27.6286C12.3698 450.859 0 438.489 0 423.23V229.829Z" fill="#377252" fill-opacity="0.4"/>
<path d="M0 229.829C0 214.57 12.3698 202.201 27.6286 202.201H185.3C192.282 202.201 199.005 204.844 204.118 209.6L207.046 212.324C217.652 222.19 234.076 222.19 244.682 212.324L247.611 209.6C252.723 204.844 259.446 202.201 266.429 202.201H424.1C439.359 202.201 451.728 214.57 451.728 229.829V423.23C451.728 438.489 439.359 450.859 424.1 450.859H27.6286C12.3698 450.859 0 438.489 0 423.23V229.829Z" fill="url(#paint11_radial_1_2999)" fill-opacity="0.12"/>
<path d="M27.6289 202.891H185.3C192.107 202.891 198.663 205.469 203.647 210.106L206.576 212.83C217.447 222.942 234.282 222.942 245.152 212.83L248.081 210.106C253.066 205.469 259.621 202.891 266.429 202.891H424.1C438.977 202.891 451.038 214.952 451.038 229.83V423.23C451.038 438.107 438.977 450.167 424.1 450.167H27.6289C12.7515 450.167 0.690479 438.107 0.69043 423.23V229.83C0.69043 214.952 12.7515 202.891 27.6289 202.891Z" stroke="url(#paint12_linear_1_2999)" stroke-opacity="0.25" stroke-width="1.38143"/>
</g>
<mask id="mask0_1_2999" style="mask-type:alpha" maskUnits="userSpaceOnUse" x="0" y="202" width="452" height="222">
<path d="M0 230.152C0 214.893 12.3698 202.523 27.6286 202.523H185.3C192.282 202.523 199.005 205.167 204.118 209.922L207.046 212.646C217.652 222.512 234.076 222.512 244.682 212.647L247.611 209.922C252.723 205.167 259.446 202.523 266.429 202.523H424.1C439.359 202.523 451.728 214.893 451.728 230.152V395.924C451.728 411.182 439.359 423.552 424.1 423.552H27.6286C12.3698 423.552 0 411.182 0 395.923V230.152Z" fill="black"/>
<path d="M0 230.152C0 214.893 12.3698 202.523 27.6286 202.523H185.3C192.282 202.523 199.005 205.167 204.118 209.922L207.046 212.646C217.652 222.512 234.076 222.512 244.682 212.647L247.611 209.922C252.723 205.167 259.446 202.523 266.429 202.523H424.1C439.359 202.523 451.728 214.893 451.728 230.152V395.924C451.728 411.182 439.359 423.552 424.1 423.552H27.6286C12.3698 423.552 0 411.182 0 395.923V230.152Z" fill="#377252" fill-opacity="0.4"/>
<path d="M0 230.152C0 214.893 12.3698 202.523 27.6286 202.523H185.3C192.282 202.523 199.005 205.167 204.118 209.922L207.046 212.646C217.652 222.512 234.076 222.512 244.682 212.647L247.611 209.922C252.723 205.167 259.446 202.523 266.429 202.523H424.1C439.359 202.523 451.728 214.893 451.728 230.152V395.924C451.728 411.182 439.359 423.552 424.1 423.552H27.6286C12.3698 423.552 0 411.182 0 395.923V230.152Z" fill="url(#paint13_radial_1_2999)" fill-opacity="0.12"/>
</mask>
<g mask="url(#mask0_1_2999)">
<g style="mix-blend-mode:lighten" opacity="0.1" filter="url(#filter5_f_1_2999)">
<ellipse cx="302.825" cy="204.776" rx="137.85" ry="134.817" fill="url(#paint14_linear_1_2999)"/>
</g>
<g style="mix-blend-mode:lighten" opacity="0.1" filter="url(#filter6_f_1_2999)">
<ellipse cx="74.303" cy="377.708" rx="137.85" ry="134.817" fill="url(#paint15_linear_1_2999)"/>
</g>
</g>
<path opacity="0.4" d="M180.99 209.107V209.797H183.753C184.737 209.797 185.717 209.849 186.688 209.95L186.759 209.264C188.263 209.421 189.746 209.694 191.197 210.08L191.021 210.746C192.916 211.249 194.755 211.948 196.506 212.832L196.816 212.216C198.157 212.892 199.447 213.673 200.675 214.555L200.273 215.115C201.066 215.684 201.832 216.297 202.567 216.951L203.705 217.961L204.163 217.445L205.868 218.961H205.869L205.41 219.477L206.547 220.488C207.311 221.167 208.102 221.801 208.916 222.388L209.32 221.828L209.321 221.826C210.538 222.704 211.806 223.477 213.114 224.144V224.145L212.801 224.76C214.622 225.688 216.519 226.417 218.459 226.945L218.64 226.279V226.277C220.076 226.668 221.536 226.946 223.007 227.113V227.115L222.93 227.801C224.943 228.029 226.975 228.051 228.993 227.867L228.93 227.178L228.929 227.176C230.403 227.042 231.868 226.794 233.312 226.434L233.313 226.437L233.48 227.107C235.431 226.621 237.344 225.933 239.185 225.044L238.884 224.422L238.883 224.421C240.206 223.783 241.49 223.038 242.726 222.186L242.728 222.188L243.119 222.756C243.739 222.329 244.347 221.876 244.94 221.396L245.528 220.908L246.991 219.663L246.544 219.137L246.543 219.136L248.737 217.269L248.738 217.27L249.186 217.795L250.648 216.55C251.375 215.932 252.131 215.352 252.91 214.814L252.519 214.247C253.725 213.413 254.989 212.676 256.299 212.038L256.601 212.658C258.312 211.824 260.103 211.165 261.946 210.691L261.774 210.023C263.185 209.66 264.626 209.403 266.085 209.255L266.154 209.941C267.097 209.846 268.048 209.797 269.003 209.797H271.747V209.107H275.865V209.797H281.354V209.107H285.473V209.797H290.962V209.107H295.079V209.797H300.569V209.107H304.687V209.797H310.177V209.107H314.294V209.797H319.784V209.107H323.901V209.797H329.392V209.107H333.509V209.797H338.999V209.107H343.116V209.797H348.605V209.107H352.724V209.797H358.213V209.107H362.331V209.797H367.82V209.107H371.938V209.797H377.428V209.107H381.545V209.797H387.035V209.107H391.152V209.797H396.643V209.107H400.76V209.797H406.25V209.107H410.367V209.797H415.857V209.107H419.975V209.797H422.72C423.531 209.797 424.332 209.842 425.119 209.93L425.194 209.246C426.444 209.385 427.662 209.628 428.84 209.966L428.649 210.629C430.205 211.077 431.689 211.696 433.078 212.465L433.411 211.862C434.5 212.465 435.533 213.157 436.5 213.929L436.069 214.468C437.322 215.469 438.461 216.607 439.461 217.86L439.999 217.428C440.771 218.395 441.463 219.428 442.066 220.517L441.464 220.851C442.233 222.24 442.852 223.724 443.3 225.28L443.962 225.088C444.301 226.266 444.543 227.484 444.683 228.734L443.999 228.81C444.087 229.597 444.132 230.398 444.132 231.209V233.95H444.822V238.059H444.132V243.539H444.822V247.648H444.132V253.127H444.822V257.237H444.132V262.715H444.822V266.826H444.132V272.304H444.822V276.414H444.132V281.893H444.822V286.002H444.132V291.482H444.822V295.591H444.132V301.071H444.822V305.18H444.132V310.66H444.822V314.769H444.132V320.249H444.822V324.358H444.132V329.837H444.822V333.947H444.132V339.426H444.822V343.536H444.132V349.015H444.822V353.125H444.132V358.603H444.822V362.713H444.132V368.192H444.822V372.301H444.132V377.781H444.822V381.89H444.132V387.37H444.822V391.479H444.132V394.219C444.132 395.031 444.087 395.831 443.999 396.619L444.683 396.694C444.543 397.944 444.301 399.161 443.962 400.339L443.3 400.149C442.852 401.705 442.233 403.189 441.464 404.578L442.066 404.911C441.463 406 440.771 407.033 439.999 408L439.461 407.569C438.461 408.822 437.322 409.96 436.069 410.96L436.5 411.499C435.533 412.271 434.5 412.963 433.411 413.566L433.078 412.963C431.689 413.733 430.205 414.352 428.649 414.799L428.84 415.461C427.662 415.8 426.444 416.043 425.194 416.182L425.119 415.499C424.332 415.586 423.531 415.631 422.72 415.631H419.976V416.322H415.86V415.631H410.373V416.322H406.258V415.631H400.771V416.322H396.655V415.631H391.168V416.322H387.053V415.631H381.565V416.322H377.45V415.631H371.963V416.322H367.847V415.631H362.36V416.322H358.244V415.631H352.757V416.322H348.642V415.631H343.154V416.322H339.039V415.631H333.552V416.322H329.437V415.631H323.949V416.322H319.834V415.631H314.347V416.322H310.231V415.631H304.744V416.322H300.629V415.631H295.142V416.322H291.026V415.631H285.539V416.322H281.424V415.631H275.937V416.322H271.82V415.631H266.334V416.322H262.218V415.631H256.73V416.322H252.615V415.631H247.128V416.322H243.013V415.631H237.525V416.322H233.41V415.631H227.923V416.322H223.808V415.631H218.32V416.322H214.205V415.631H208.718V416.322H204.603V415.631H199.115V416.322H195V415.631H189.513V416.322H185.397V415.631H179.91V416.322H175.794V415.631H170.307V416.322H166.191V415.631H160.704V416.322H156.589V415.631H151.102V416.322H146.986V415.631H141.499V416.322H137.384V415.631H131.896V416.322H127.781V415.631H122.294V416.322H118.179V415.631H112.691V416.322H108.576V415.631H103.089V416.322H98.9736V415.631H93.4863V416.322H89.3701V415.631H83.8838V416.322H79.7676V415.631H74.2803V416.322H70.165V415.631H64.6777V416.322H60.5625V415.631H55.0752V416.322H50.96V415.631H45.4727V416.322H41.3574V415.631H35.8701V416.322H31.7549V415.631H29.0107C28.1995 415.631 27.3987 415.586 26.6113 415.499L26.5352 416.182C25.2855 416.043 24.0675 415.8 22.8896 415.461L23.0811 414.799C21.5251 414.352 20.0413 413.733 18.6523 412.963L18.3184 413.566C17.2291 412.963 16.1962 412.271 15.2295 411.499L15.6611 410.96C14.4083 409.96 13.27 408.822 12.2695 407.569L11.7305 408C10.9585 407.033 10.2663 406 9.66309 404.911L10.2666 404.578C9.49731 403.189 8.87818 401.705 8.43066 400.149L7.76758 400.339C7.42885 399.162 7.18612 397.943 7.04688 396.694L7.73145 396.619C7.66562 396.028 7.62423 395.43 7.60742 394.826L7.59863 394.219V391.479H6.9082V387.37H7.59863V381.89H6.9082V377.781H7.59863V372.301H6.9082V368.192H7.59863V362.713H6.9082V358.603H7.59863V353.125H6.9082V349.015H7.59863V343.536H6.9082V339.426H7.59863V333.947H6.9082V329.837H7.59863V324.358H6.9082V320.249H7.59863V314.769H6.9082V310.66H7.59863V305.18H6.9082V301.071H7.59863V295.591H6.9082V291.482H7.59863V286.002H6.9082V281.893H7.59863V276.414H6.9082V272.304H7.59863V266.826H6.9082V262.715H7.59863V257.237H6.9082V253.127H7.59863V247.648H6.9082V243.539H7.59863V238.059H6.9082V233.95H7.59863V231.209C7.59865 230.398 7.64368 229.597 7.73145 228.81L7.04688 228.734C7.18617 227.484 7.4288 226.266 7.76758 225.088L8.43066 225.28C8.87818 223.724 9.49731 222.24 10.2666 220.851L9.66309 220.517C10.2663 219.428 10.9585 218.395 11.7305 217.428L12.2695 217.86C13.27 216.607 14.4083 215.469 15.6611 214.468L15.2295 213.929C16.1962 213.157 17.2292 212.465 18.3184 211.862L18.6523 212.465C20.0413 211.696 21.5251 211.077 23.0811 210.629L22.8896 209.966C24.0674 209.628 25.2856 209.385 26.5352 209.246L26.6113 209.93C27.3987 209.842 28.1995 209.797 29.0107 209.797H31.7744V209.107H35.9189V209.797H41.4453V209.107H45.5908V209.797H51.1172V209.107H55.2617V209.797H60.7881V209.107H64.9336V209.797H70.46V209.107H74.6045V209.797H80.1309V209.107H84.2764V209.797H89.8027V209.107H93.9473V209.797H99.4746V209.107H103.619V209.797H109.146V209.107H113.29V209.797H118.817V209.107H122.962V209.797H128.488V209.107H132.633V209.797H138.16V209.107H142.305V209.797H147.831V209.107H151.976V209.797H157.503V209.107H161.647V209.797H167.174V209.107H171.318V209.797H176.846V209.107H180.99Z" stroke="url(#paint16_linear_1_2999)" stroke-width="1.38143" stroke-dasharray="5.53 4.14"/>
<path opacity="0.2" d="M182.371 210.489V211.179H185.134C186.118 211.179 187.098 211.23 188.068 211.331L188.14 210.646C189.643 210.802 191.127 211.076 192.578 211.461L192.401 212.127C194.297 212.631 196.135 213.33 197.887 214.213L198.197 213.598C199.538 214.274 200.828 215.055 202.056 215.937L201.654 216.496C202.447 217.066 203.213 217.678 203.948 218.332L205.086 219.343L205.544 218.826L207.249 220.343H207.25L206.791 220.859L207.928 221.869C208.692 222.549 209.483 223.182 210.297 223.77L210.701 223.209L210.702 223.207C211.919 224.085 213.186 224.859 214.495 225.526V225.527L214.182 226.142C216.003 227.07 217.9 227.798 219.84 228.326L220.02 227.66V227.658C221.457 228.05 222.917 228.328 224.388 228.494V228.496L224.31 229.183C226.324 229.411 228.356 229.433 230.374 229.248L230.31 228.56L230.31 228.558C231.783 228.423 233.249 228.176 234.693 227.816L234.694 227.819L234.861 228.489C236.812 228.002 238.724 227.315 240.565 226.426L240.265 225.804L240.264 225.803C241.586 225.164 242.871 224.419 244.106 223.568L244.108 223.57L244.5 224.138C245.12 223.711 245.728 223.257 246.321 222.778L246.909 222.289L248.372 221.044L247.925 220.519L247.924 220.518L250.118 218.651L250.119 218.652L250.566 219.177L252.029 217.932C252.756 217.313 253.511 216.734 254.291 216.196L253.899 215.628C255.106 214.795 256.37 214.057 257.68 213.419L257.981 214.039C259.692 213.206 261.484 212.547 263.327 212.073L263.155 211.405C264.566 211.042 266.007 210.784 267.466 210.637L267.535 211.323C268.478 211.227 269.429 211.179 270.384 211.179H273.128V210.489H277.246V211.179H282.735V210.489H286.853V211.179H292.343V210.489H296.46V211.179H301.95V210.489H306.067V211.179H311.558V210.489H315.675V211.179H321.165V210.489H325.282V211.179H330.772V210.489H334.89V211.179H340.38V210.489H344.497V211.179H349.986V210.489H354.104V211.179H359.594V210.489H363.712V211.179H369.201V210.489H373.318V211.179H378.809V210.489H382.926V211.179H388.416V210.489H392.533V211.179H398.023V210.489H402.141V211.179H407.631V210.489H411.748V211.179H417.238V210.489H421.355V211.179H424.101C424.912 211.179 425.713 211.224 426.5 211.312L426.575 210.627C427.825 210.766 429.043 211.009 430.221 211.348L430.03 212.011C431.586 212.459 433.07 213.078 434.459 213.847L434.792 213.243C435.881 213.847 436.914 214.539 437.881 215.311L437.45 215.85C438.703 216.85 439.841 217.989 440.842 219.241L441.38 218.81C442.152 219.777 442.844 220.809 443.447 221.899L442.845 222.233C443.614 223.622 444.233 225.105 444.681 226.661L445.343 226.47C445.682 227.648 445.924 228.866 446.063 230.115L445.38 230.192C445.468 230.979 445.513 231.78 445.513 232.591V235.331H446.203V239.441H445.513V244.92H446.203V249.03H445.513V254.509H446.203V258.618H445.513V264.097H446.203V268.207H445.513V273.686H446.203V277.795H445.513V283.275H446.203V287.384H445.513V292.864H446.203V296.973H445.513V302.452H446.203V306.562H445.513V312.041H446.203V316.151H445.513V321.63H446.203V325.74H445.513V331.219H446.203V335.328H445.513V340.808H446.203V344.917H445.513V350.397H446.203V354.506H445.513V359.985H446.203V364.095H445.513V369.573H446.203V373.683H445.513V379.162H446.203V383.272H445.513V388.751H446.203V392.861H445.513V395.601C445.513 396.412 445.468 397.213 445.38 398L446.063 398.075C445.924 399.325 445.681 400.543 445.343 401.721L444.681 401.531C444.233 403.086 443.614 404.57 442.845 405.959L443.447 406.292C442.844 407.382 442.152 408.414 441.38 409.381L440.842 408.95C439.841 410.203 438.703 411.342 437.45 412.342L437.881 412.88C436.914 413.652 435.881 414.344 434.792 414.948L434.459 414.345C433.07 415.114 431.586 415.733 430.03 416.181L430.221 416.843C429.043 417.182 427.825 417.424 426.575 417.564L426.5 416.88C425.713 416.968 424.912 417.013 424.101 417.013H421.356V417.703H417.241V417.013H411.754V417.703H407.639V417.013H402.151V417.703H398.036V417.013H392.549V417.703H388.434V417.013H382.946V417.703H378.831V417.013H373.344V417.703H369.227V417.013H363.741V417.703H359.625V417.013H354.138V417.703H350.022V417.013H344.535V417.703H340.42V417.013H334.933V417.703H330.817V417.013H325.33V417.703H321.215V417.013H315.727V417.703H311.612V417.013H306.125V417.703H302.01V417.013H296.522V417.703H292.407V417.013H286.92V417.703H282.805V417.013H277.317V417.703H273.201V417.013H267.715V417.703H263.599V417.013H258.111V417.703H253.996V417.013H248.509V417.703H244.393V417.013H238.906V417.703H234.791V417.013H229.304V417.703H225.188V417.013H219.701V417.703H215.586V417.013H210.099V417.703H205.983V417.013H200.496V417.703H196.381V417.013H190.893V417.703H186.778V417.013H181.291V417.703H177.175V417.013H171.687V417.703H167.572V417.013H162.085V417.703H157.97V417.013H152.482V417.703H148.367V417.013H142.88V417.703H138.765V417.013H133.277V417.703H129.162V417.013H123.675V417.703H119.56V417.013H114.072V417.703H109.957V417.013H104.47V417.703H100.354V417.013H94.8671V417.703H90.7509V417.013H85.2646V417.703H81.1484V417.013H75.6611V417.703H71.5458V417.013H66.0585V417.703H61.9433V417.013H56.456V417.703H52.3408V417.013H46.8535V417.703H42.7382V417.013H37.2509V417.703H33.1357V417.013H30.3915C29.5803 417.013 28.7795 416.968 27.9921 416.88L27.916 417.564C26.6663 417.424 25.4483 417.182 24.2704 416.843L24.4619 416.181C22.9059 415.733 21.4221 415.114 20.0331 414.345L19.6992 414.948C18.6099 414.344 17.577 413.652 16.6103 412.88L17.0419 412.342C15.7891 411.342 14.6508 410.203 13.6503 408.95L13.1113 409.381C12.3393 408.414 11.6471 407.381 11.0439 406.292L11.6474 405.959C10.8781 404.57 10.259 403.086 9.81146 401.531L9.14838 401.721C8.80965 400.543 8.56692 399.325 8.42767 398.075L9.11224 398C9.04642 397.41 9.00503 396.812 8.98822 396.207L8.97943 395.601V392.861H8.289V388.751H8.97943V383.272H8.289V379.162H8.97943V373.683H8.289V369.573H8.97943V364.095H8.289V359.985H8.97943V354.506H8.289V350.397H8.97943V344.917H8.289V340.808H8.97943V335.328H8.289V331.219H8.97943V325.74H8.289V321.63H8.97943V316.151H8.289V312.041H8.97943V306.562H8.289V302.452H8.97943V296.973H8.289V292.864H8.97943V287.384H8.289V283.275H8.97943V277.795H8.289V273.686H8.97943V268.207H8.289V264.097H8.97943V258.618H8.289V254.509H8.97943V249.03H8.289V244.92H8.97943V239.441H8.289V235.331H8.97943V232.591C8.97945 231.78 9.02448 230.979 9.11224 230.192L8.42767 230.115C8.56697 228.866 8.8096 227.648 9.14838 226.47L9.81146 226.661C10.259 225.105 10.8781 223.622 11.6474 222.233L11.0439 221.899C11.6471 220.809 12.3393 219.776 13.1113 218.81L13.6503 219.241C14.6508 217.989 15.7891 216.85 17.0419 215.85L16.6103 215.311C17.577 214.539 18.61 213.847 19.6992 213.243L20.0331 213.847C21.4221 213.078 22.9059 212.459 24.4619 212.011L24.2704 211.348C25.4482 211.009 26.6664 210.766 27.916 210.627L27.9921 211.312C28.7795 211.224 29.5803 211.179 30.3915 211.179H33.1552V210.489H37.2997V211.179H42.8261V210.489H46.9716V211.179H52.498V210.489H56.6425V211.179H62.1689V210.489H66.3144V211.179H71.8408V210.489H75.9853V211.179H81.5117V210.489H85.6572V211.179H91.1835V210.489H95.3281V211.179H100.855V210.489H105V211.179H110.526V210.489H114.671V211.179H120.198V210.489H124.343V211.179H129.869V210.489H134.014V211.179H139.541V210.489H143.685V211.179H149.212V210.489H153.356V211.179H158.884V210.489H163.028V211.179H168.555V210.489H172.699V211.179H178.227V210.489H182.371Z" stroke="black" stroke-width="1.38143" stroke-dasharray="5.53 4.14"/>
<g style="mix-blend-mode:soft-light">
<path d="M108.822 325.125L102.212 300.155H107.646L111.539 317.996H111.816L116.367 300.155H120.78L125.417 317.996H125.694L129.553 300.155H134.952L128.324 325.125H123.427L118.703 308.306H118.426L113.754 325.125H108.822ZM139.503 325.125V300.155H144.729V310.296H155.977V300.155H161.203V325.125H155.977V314.604H144.729V325.125H139.503ZM167.259 325.125V300.155H172.485V325.125H167.259ZM184.598 325.125V304.464H177.106V300.155H197.317V304.464H189.824V325.125H184.598ZM201.938 325.125V300.155H218.481V304.464H207.163V310.486H217.84V314.501H207.163V320.817H218.481V325.125H201.938ZM223.793 317.321V312.77H235.3V317.321H223.793ZM241.149 325.125V300.155H246.375V320.817H257.485V325.125H241.149ZM260.444 325.125L269.113 300.155H275.256L283.943 325.125H278.44L276.589 319.069H267.781L265.929 325.125H260.444ZM272.038 305.139L268.975 315.158H275.395L272.349 305.139H272.038ZM288.183 325.125V300.155H299.102C303.947 300.155 306.837 302.526 306.837 306.367V306.402C306.837 309.032 304.882 311.334 302.321 311.715V312.026C305.626 312.286 308.031 314.76 308.031 317.961V317.996C308.031 322.374 304.726 325.125 299.396 325.125H288.183ZM297.77 304.031H293.409V310.538H297.337C300.158 310.538 301.698 309.361 301.698 307.302V307.267C301.698 305.243 300.261 304.031 297.77 304.031ZM297.943 313.981H293.409V321.232H298.064C301.075 321.232 302.701 319.951 302.701 317.581V317.546C302.701 315.227 301.023 313.981 297.943 313.981ZM312.755 325.125V300.155H329.298V304.464H317.981V310.486H328.658V314.501H317.981V320.817H329.298V325.125H312.755ZM334.801 325.125V300.155H340.027V320.817H351.136V325.125H334.801Z" fill="white"/>
</g>
</g>
<defs>
<filter id="filter0_n_1_2999" x="0" y="105.5" width="451.728" height="276.286" filterUnits="userSpaceOnUse" color-interpolation-filters="sRGB">
<feFlood flood-opacity="0" result="BackgroundImageFix"/>
<feBlend mode="normal" in="SourceGraphic" in2="BackgroundImageFix" result="shape"/>
<feTurbulence type="fractalNoise" baseFrequency="0.72388637065887451 0.72388637065887451" stitchTiles="stitch" numOctaves="3" result="noise" seed="941" />
<feColorMatrix in="noise" type="luminanceToAlpha" result="alphaNoise" />
<feComponentTransfer in="alphaNoise" result="coloredNoise1">
<feFuncA type="discrete" tableValues="1 1 1 1 1 1 1 1 1 1 1 1 1 1 1 1 1 1 1 1 1 1 1 1 1 1 1 1 1 1 1 1 1 1 1 1 1 1 1 1 1 1 1 1 1 1 1 1 1 1 1 0 0 0 0 0 0 0 0 0 0 0 0 0 0 0 0 0 0 0 0 0 0 0 0 0 0 0 0 0 0 0 0 0 0 0 0 0 0 0 0 0 0 0 0 0 0 0 0 0 "/>
</feComponentTransfer>
<feComposite operator="in" in2="shape" in="coloredNoise1" result="noise1Clipped" />
<feFlood flood-color="rgba(0, 0, 0, 0.13)" result="color1Flood" />
<feComposite operator="in" in2="noise1Clipped" in="color1Flood" result="color1" />
<feMerge result="effect1_noise_1_2999">
<feMergeNode in="shape" />
<feMergeNode in="color1" />
</feMerge>
</filter>
<filter id="filter1_dn_1_2999" x="9.72378" y="4.28851" width="358.724" height="490.902" filterUnits="userSpaceOnUse" color-interpolation-filters="sRGB">
<feFlood flood-opacity="0" result="BackgroundImageFix"/>
<feColorMatrix in="SourceAlpha" type="matrix" values="0 0 0 0 0 0 0 0 0 0 0 0 0 0 0 0 0 0 127 0" result="hardAlpha"/>
<feMorphology radius="12.236" operator="erode" in="SourceAlpha" result="effect1_dropShadow_1_2999"/>
<feOffset dy="79.3872"/>
<feGaussianBlur stdDeviation="19.5776"/>
<feColorMatrix type="matrix" values="0 0 0 0 0 0 0 0 0 0 0 0 0 0 0 0 0 0 0.15 0"/>
<feBlend mode="normal" in2="BackgroundImageFix" result="effect1_dropShadow_1_2999"/>
<feBlend mode="normal" in="SourceGraphic" in2="BackgroundImageFix" result="shape"/>
<feTurbulence type="fractalNoise" baseFrequency="0.81725990772247314 0.81725990772247314" stitchTiles="stitch" numOctaves="3" result="noise" seed="8792" />
<feColorMatrix in="noise" type="luminanceToAlpha" result="alphaNoise" />
<feComponentTransfer in="alphaNoise" result="coloredNoise1">
<feFuncA type="discrete" tableValues="1 1 1 1 1 1 1 1 1 1 1 1 1 1 1 1 1 1 1 1 1 1 1 1 1 1 1 1 1 1 1 1 1 1 1 1 1 1 1 1 1 1 1 1 1 1 1 1 1 1 1 0 0 0 0 0 0 0 0 0 0 0 0 0 0 0 0 0 0 0 0 0 0 0 0 0 0 0 0 0 0 0 0 0 0 0 0 0 0 0 0 0 0 0 0 0 0 0 0 0 "/>
</feComponentTransfer>
<feComposite operator="in" in2="shape" in="coloredNoise1" result="noise1Clipped" />
<feFlood flood-color="rgba(0, 0, 0, 0.14)" result="color1Flood" />
<feComposite operator="in" in2="noise1Clipped" in="color1Flood" result="color1" />
<feMerge result="effect2_noise_1_2999">
<feMergeNode in="shape" />
<feMergeNode in="color1" />
</feMerge>
<feBlend mode="normal" in="effect2_noise_1_2999" in2="effect1_dropShadow_1_2999" result="effect2_noise_1_2999"/>
</filter>
<filter id="filter2_f_1_2999" x="-45.2084" y="20.533" width="387.894" height="461.568" filterUnits="userSpaceOnUse" color-interpolation-filters="sRGB">
<feFlood flood-opacity="0" result="BackgroundImageFix"/>
<feBlend mode="normal" in="SourceGraphic" in2="BackgroundImageFix" result="shape"/>
<feGaussianBlur stdDeviation="42.4536" result="effect1_foregroundBlur_1_2999"/>
</filter>
<filter id="filter3_dn_1_2999" x="10.8612" y="22.9232" width="429.19" height="481.591" filterUnits="userSpaceOnUse" color-interpolation-filters="sRGB">
<feFlood flood-opacity="0" result="BackgroundImageFix"/>
<feColorMatrix in="SourceAlpha" type="matrix" values="0 0 0 0 0 0 0 0 0 0 0 0 0 0 0 0 0 0 127 0" result="hardAlpha"/>
<feMorphology radius="12.236" operator="erode" in="SourceAlpha" result="effect1_dropShadow_1_2999"/>
<feOffset dy="79.3872"/>
<feGaussianBlur stdDeviation="19.5776"/>
<feColorMatrix type="matrix" values="0 0 0 0 0 0 0 0 0 0 0 0 0 0 0 0 0 0 0.15 0"/>
<feBlend mode="normal" in2="BackgroundImageFix" result="effect1_dropShadow_1_2999"/>
<feBlend mode="normal" in="SourceGraphic" in2="BackgroundImageFix" result="shape"/>
<feTurbulence type="fractalNoise" baseFrequency="0.81725990772247314 0.81725990772247314" stitchTiles="stitch" numOctaves="3" result="noise" seed="8792" />
<feColorMatrix in="noise" type="luminanceToAlpha" result="alphaNoise" />
<feComponentTransfer in="alphaNoise" result="coloredNoise1">
<feFuncA type="discrete" tableValues="1 1 1 1 1 1 1 1 1 1 1 1 1 1 1 1 1 1 1 1 1 1 1 1 1 1 1 1 1 1 1 1 1 1 1 1 1 1 1 1 1 1 1 1 1 1 1 1 1 1 1 0 0 0 0 0 0 0 0 0 0 0 0 0 0 0 0 0 0 0 0 0 0 0 0 0 0 0 0 0 0 0 0 0 0 0 0 0 0 0 0 0 0 0 0 0 0 0 0 0 "/>
</feComponentTransfer>
<feComposite operator="in" in2="shape" in="coloredNoise1" result="noise1Clipped" />
<feFlood flood-color="rgba(0, 0, 0, 0.14)" result="color1Flood" />
<feComposite operator="in" in2="noise1Clipped" in="color1Flood" result="color1" />
<feMerge result="effect2_noise_1_2999">
<feMergeNode in="shape" />
<feMergeNode in="color1" />
</feMerge>
<feBlend mode="normal" in="effect2_noise_1_2999" in2="effect1_dropShadow_1_2999" result="effect2_noise_1_2999"/>
</filter>
<filter id="filter4_dn_1_2999" x="-33.1544" y="163.521" width="518.037" height="314.967" filterUnits="userSpaceOnUse" color-interpolation-filters="sRGB">
<feFlood flood-opacity="0" result="BackgroundImageFix"/>
<feColorMatrix in="SourceAlpha" type="matrix" values="0 0 0 0 0 0 0 0 0 0 0 0 0 0 0 0 0 0 127 0" result="hardAlpha"/>
<feOffset dy="-5.52573"/>
<feGaussianBlur stdDeviation="16.5772"/>
<feComposite in2="hardAlpha" operator="out"/>
<feColorMatrix type="matrix" values="0 0 0 0 0 0 0 0 0 0 0 0 0 0 0 0 0 0 0.33 0"/>
<feBlend mode="normal" in2="BackgroundImageFix" result="effect1_dropShadow_1_2999"/>
<feBlend mode="normal" in="SourceGraphic" in2="BackgroundImageFix" result="shape"/>
<feTurbulence type="fractalNoise" baseFrequency="0.72388637065887451 0.72388637065887451" stitchTiles="stitch" numOctaves="3" result="noise" seed="941" />
<feColorMatrix in="noise" type="luminanceToAlpha" result="alphaNoise" />
<feComponentTransfer in="alphaNoise" result="coloredNoise1">
<feFuncA type="discrete" tableValues="1 1 1 1 1 1 1 1 1 1 1 1 1 1 1 1 1 1 1 1 1 1 1 1 1 1 1 1 1 1 1 1 1 1 1 1 1 1 1 1 1 1 1 1 1 1 1 1 1 1 1 0 0 0 0 0 0 0 0 0 0 0 0 0 0 0 0 0 0 0 0 0 0 0 0 0 0 0 0 0 0 0 0 0 0 0 0 0 0 0 0 0 0 0 0 0 0 0 0 0 "/>
</feComponentTransfer>
<feComposite operator="in" in2="shape" in="coloredNoise1" result="noise1Clipped" />
<feFlood flood-color="rgba(0, 0, 0, 0.13)" result="color1Flood" />
<feComposite operator="in" in2="noise1Clipped" in="color1Flood" result="color1" />
<feMerge result="effect2_noise_1_2999">
<feMergeNode in="shape" />
<feMergeNode in="color1" />
</feMerge>
<feBlend mode="normal" in="effect2_noise_1_2999" in2="effect1_dropShadow_1_2999" result="effect2_noise_1_2999"/>
</filter>
<filter id="filter5_f_1_2999" x="108.352" y="13.3365" width="388.946" height="382.879" filterUnits="userSpaceOnUse" color-interpolation-filters="sRGB">
<feFlood flood-opacity="0" result="BackgroundImageFix"/>
<feBlend mode="normal" in="SourceGraphic" in2="BackgroundImageFix" result="shape"/>
<feGaussianBlur stdDeviation="28.3115" result="effect1_foregroundBlur_1_2999"/>
</filter>
<filter id="filter6_f_1_2999" x="-120.17" y="186.268" width="388.946" height="382.879" filterUnits="userSpaceOnUse" color-interpolation-filters="sRGB">
<feFlood flood-opacity="0" result="BackgroundImageFix"/>
<feBlend mode="normal" in="SourceGraphic" in2="BackgroundImageFix" result="shape"/>
<feGaussianBlur stdDeviation="28.3115" result="effect1_foregroundBlur_1_2999"/>
</filter>
<linearGradient id="paint0_linear_1_2999" x1="225.864" y1="105.5" x2="225.864" y2="381.787" gradientUnits="userSpaceOnUse">
<stop stop-color="#BDFFE2" stop-opacity="0.5"/>
<stop offset="1" stop-color="#278A64" stop-opacity="0.7"/>
</linearGradient>
<linearGradient id="paint1_linear_1_2999" x1="24.9368" y1="-251.364" x2="386.652" y2="-251.364" gradientUnits="userSpaceOnUse">
<stop stop-color="#00A277"/>
<stop offset="1" stop-color="#E73029"/>
</linearGradient>
<linearGradient id="paint2_linear_1_2999" x1="49.4721" y1="320.461" x2="401.945" y2="568.729" gradientUnits="userSpaceOnUse">
<stop stop-color="white" stop-opacity="0.51"/>
<stop offset="1" stop-color="white" stop-opacity="0"/>
</linearGradient>
<radialGradient id="paint3_radial_1_2999" cx="0" cy="0" r="1" gradientTransform="matrix(-48.5018 -132.431 277.367 -93.1695 280.024 526.026)" gradientUnits="userSpaceOnUse">
<stop stop-color="#00A277"/>
<stop offset="1" stop-color="#00A277" stop-opacity="0"/>
</radialGradient>
<radialGradient id="paint4_radial_1_2999" cx="0" cy="0" r="1" gradientTransform="matrix(79.9763 131.443 -219.072 122.254 79.8253 315.52)" gradientUnits="userSpaceOnUse">
<stop stop-color="#FF0000"/>
<stop offset="1" stop-color="#8247E5" stop-opacity="0"/>
</radialGradient>
<linearGradient id="paint5_linear_1_2999" x1="246.082" y1="308.051" x2="203.581" y2="526.011" gradientUnits="userSpaceOnUse">
<stop stop-color="#BEEB31"/>
<stop offset="1" stop-color="#37B182" stop-opacity="0"/>
</linearGradient>
<linearGradient id="paint6_linear_1_2999" x1="32.3555" y1="329.142" x2="366.74" y2="539.122" gradientUnits="userSpaceOnUse">
<stop stop-color="white" stop-opacity="0.5"/>
<stop offset="1" stop-color="white" stop-opacity="0.23"/>
</linearGradient>
<linearGradient id="paint7_linear_1_2999" x1="128.669" y1="203.983" x2="312.422" y2="332.061" gradientUnits="userSpaceOnUse">
<stop stop-color="#37B182"/>
<stop offset="1" stop-color="#BEEB31"/>
</linearGradient>
<linearGradient id="paint8_linear_1_2999" x1="23.6907" y1="-312.069" x2="385.406" y2="-312.069" gradientUnits="userSpaceOnUse">
<stop stop-color="#00A277"/>
<stop offset="1" stop-color="#E73029"/>
</linearGradient>
<linearGradient id="paint9_linear_1_2999" x1="48.7475" y1="258.95" x2="401.221" y2="507.218" gradientUnits="userSpaceOnUse">
<stop stop-color="white" stop-opacity="0.51"/>
<stop offset="1" stop-color="white" stop-opacity="0"/>
</linearGradient>
<linearGradient id="paint10_linear_1_2999" x1="31.6309" y1="267.63" x2="366.015" y2="477.611" gradientUnits="userSpaceOnUse">
<stop stop-color="white" stop-opacity="0.5"/>
<stop offset="1" stop-color="white" stop-opacity="0.23"/>
</linearGradient>
<radialGradient id="paint11_radial_1_2999" cx="0" cy="0" r="1" gradientTransform="matrix(-374.935 -150.14 350.684 -123.517 433.659 374.395)" gradientUnits="userSpaceOnUse">
<stop stop-color="#3FB294"/>
<stop offset="1" stop-color="#3BAE90" stop-opacity="0"/>
</radialGradient>
<linearGradient id="paint12_linear_1_2999" x1="225.864" y1="202.201" x2="225.864" y2="395.601" gradientUnits="userSpaceOnUse">
<stop stop-color="#BDFFE2" stop-opacity="0.5"/>
<stop offset="1" stop-color="#278A64" stop-opacity="0.7"/>
</linearGradient>
<radialGradient id="paint13_radial_1_2999" cx="0" cy="0" r="1" gradientTransform="matrix(-374.935 -150.14 350.684 -123.517 433.659 374.717)" gradientUnits="userSpaceOnUse">
<stop stop-color="#3FB294"/>
<stop offset="1" stop-color="#3BAE90" stop-opacity="0"/>
</radialGradient>
<linearGradient id="paint14_linear_1_2999" x1="284.516" y1="141.958" x2="487.079" y2="239.006" gradientUnits="userSpaceOnUse">
<stop stop-color="#37B182"/>
<stop offset="1" stop-color="#BEEB31"/>
</linearGradient>
<linearGradient id="paint15_linear_1_2999" x1="55.9948" y1="314.89" x2="258.558" y2="411.938" gradientUnits="userSpaceOnUse">
<stop stop-color="#37B182"/>
<stop offset="1" stop-color="#743DFF"/>
</linearGradient>
<linearGradient id="paint16_linear_1_2999" x1="225.865" y1="209.107" x2="288.72" y2="375.57" gradientUnits="userSpaceOnUse">
<stop stop-color="#4DA880"/>
<stop offset="1" stop-color="#3E8B6E"/>
</linearGradient>
<clipPath id="clip0_1_2999">
<rect x="32.3555" y="320.46" width="342.608" height="206.707" rx="14.6832" transform="rotate(-69.2856 32.3555 320.46)" fill="white"/>
</clipPath>
<clipPath id="clip1_1_2999">
<rect x="31.6309" y="258.949" width="342.608" height="206.707" rx="14.6832" transform="rotate(-44.98 31.6309 258.949)" fill="white"/>
</clipPath>
<clipPath id="clip2_1_2999">
<rect y="163.52" width="451.728" height="259.709" rx="27.6286" fill="white"/>
</clipPath>
</defs>
</svg>
