<svg width="1440" height="1054" viewBox="0 0 1440 1054" fill="none" xmlns="http://www.w3.org/2000/svg">
<g opacity="0.6">
<path d="M80 0V1054M240 0V1054M400 0V1054M560 0V1054M720 0V1054M880 0V1054M1040 0V1054M1200 0V1054M1360 0V1054M160 0V1054M320 0V1054M480 0V1054M640 0V1054M800 0V1054M960 0V1054M1120 0V1054M1280 0V1054M0 79H1440M0 159H1440M0 239H1440M0 319H1440M0 399H1440M0 479H1440M0 559H1440M0 639H1440M0 719H1440M0 799H1440M0 879H1440M0 959H1440M0 1039H1440" stroke="url(#paint0_linear_2127_439)" stroke-opacity="0.03"/>
<path d="M80 0V1054M240 0V1054M400 0V1054M560 0V1054M720 0V1054M880 0V1054M1040 0V1054M1200 0V1054M1360 0V1054M160 0V1054M320 0V1054M480 0V1054M640 0V1054M800 0V1054M960 0V1054M1120 0V1054M1280 0V1054M0 79H1440M0 159H1440M0 239H1440M0 319H1440M0 399H1440M0 479H1440M0 559H1440M0 639H1440M0 719H1440M0 799H1440M0 879H1440M0 959H1440M0 1039H1440" stroke="url(#paint1_radial_2127_439)" stroke-opacity="0.05"/>
<path d="M80 0V1054M240 0V1054M400 0V1054M560 0V1054M720 0V1054M880 0V1054M1040 0V1054M1200 0V1054M1360 0V1054M160 0V1054M320 0V1054M480 0V1054M640 0V1054M800 0V1054M960 0V1054M1120 0V1054M1280 0V1054M0 79H1440M0 159H1440M0 239H1440M0 319H1440M0 399H1440M0 479H1440M0 559H1440M0 639H1440M0 719H1440M0 799H1440M0 879H1440M0 959H1440M0 1039H1440" stroke="url(#paint2_radial_2127_439)" stroke-opacity="0.05"/>
</g>
<defs>
<linearGradient id="paint0_linear_2127_439" x1="720" y1="0" x2="720" y2="1054" gradientUnits="userSpaceOnUse">
<stop stop-color="white"/>
<stop offset="1" stop-color="#999999"/>
</linearGradient>
<radialGradient id="paint1_radial_2127_439" cx="0" cy="0" r="1" gradientUnits="userSpaceOnUse" gradientTransform="translate(982.5 423) rotate(104.273) scale(381.269 520.899)">
<stop stop-color="white"/>
<stop offset="1" stop-color="white" stop-opacity="0"/>
</radialGradient>
<radialGradient id="paint2_radial_2127_439" cx="0" cy="0" r="1" gradientUnits="userSpaceOnUse" gradientTransform="translate(359 289) rotate(54.3744) scale(340.78 465.582)">
<stop stop-color="white"/>
<stop offset="1" stop-color="white" stop-opacity="0"/>
</radialGradient>
</defs>
</svg>
